<?xml version="1.0" encoding="UTF-8" standalone="no"?>
<!DOCTYPE svg PUBLIC "-//W3C//DTD SVG 1.1//EN"
 "http://www.w3.org/Graphics/SVG/1.1/DTD/svg11.dtd">
<!-- Generated by graphviz version 8.1.0 (0)
 -->
<!-- Title: Tree Pages: 1 -->
<svg width="712pt" height="503pt"
 viewBox="0.00 0.00 712.00 503.00" xmlns="http://www.w3.org/2000/svg" xmlns:xlink="http://www.w3.org/1999/xlink">
<g id="graph0" class="graph" transform="scale(1 1) rotate(0) translate(4 499)">
<title>Tree</title>
<polygon fill="white" stroke="none" points="-4,4 -4,-499 708,-499 708,4 -4,4"/>
<!-- 0 -->
<g id="node1" class="node">
<title>0</title>
<polygon fill="#ffffff" stroke="black" points="124,-359.5 0,-359.5 0,-291.5 124,-291.5 124,-359.5"/>
<text text-anchor="middle" x="62" y="-342.2" font-family="Helvetica,sans-Serif" font-size="14.00">x2 &lt;= 0.144</text>
<text text-anchor="middle" x="62" y="-327.2" font-family="Helvetica,sans-Serif" font-size="14.00">gini = 0.5</text>
<text text-anchor="middle" x="62" y="-312.2" font-family="Helvetica,sans-Serif" font-size="14.00">samples = 200</text>
<text text-anchor="middle" x="62" y="-297.2" font-family="Helvetica,sans-Serif" font-size="14.00">value = [100, 100]</text>
</g>
<!-- 1 -->
<g id="node2" class="node">
<title>1</title>
<polygon fill="#e78c49" stroke="black" points="265.25,-423.5 163.75,-423.5 163.75,-355.5 265.25,-355.5 265.25,-423.5"/>
<text text-anchor="middle" x="214.5" y="-406.2" font-family="Helvetica,sans-Serif" font-size="14.00">x2 &lt;= &#45;0.344</text>
<text text-anchor="middle" x="214.5" y="-391.2" font-family="Helvetica,sans-Serif" font-size="14.00">gini = 0.142</text>
<text text-anchor="middle" x="214.5" y="-376.2" font-family="Helvetica,sans-Serif" font-size="14.00">samples = 52</text>
<text text-anchor="middle" x="214.5" y="-361.2" font-family="Helvetica,sans-Serif" font-size="14.00">value = [48, 4]</text>
</g>
<!-- 0&#45;&gt;1 -->
<g id="edge1" class="edge">
<title>0&#45;&gt;1</title>
<path fill="none" stroke="black" d="M124.21,-351.53C133.88,-355.64 143.86,-359.89 153.5,-363.98"/>
<polygon fill="black" stroke="black" points="151.81,-367.5 162.39,-368.19 154.55,-361.05 151.81,-367.5"/>
<text text-anchor="middle" x="140.2" y="-371.74" font-family="Helvetica,sans-Serif" font-size="14.00">True</text>
</g>
<!-- 8 -->
<g id="node9" class="node">
<title>8</title>
<polygon fill="#a4d2f3" stroke="black" points="269,-256.5 160,-256.5 160,-188.5 269,-188.5 269,-256.5"/>
<text text-anchor="middle" x="214.5" y="-239.2" font-family="Helvetica,sans-Serif" font-size="14.00">x1 &lt;= 2.246</text>
<text text-anchor="middle" x="214.5" y="-224.2" font-family="Helvetica,sans-Serif" font-size="14.00">gini = 0.456</text>
<text text-anchor="middle" x="214.5" y="-209.2" font-family="Helvetica,sans-Serif" font-size="14.00">samples = 148</text>
<text text-anchor="middle" x="214.5" y="-194.2" font-family="Helvetica,sans-Serif" font-size="14.00">value = [52, 96]</text>
</g>
<!-- 0&#45;&gt;8 -->
<g id="edge8" class="edge">
<title>0&#45;&gt;8</title>
<path fill="none" stroke="black" d="M113.11,-291.2C126.3,-282.18 140.65,-272.36 154.27,-263.04"/>
<polygon fill="black" stroke="black" points="155.82,-265.54 162.09,-257 151.86,-259.76 155.82,-265.54"/>
<text text-anchor="middle" x="138.52" y="-246.59" font-family="Helvetica,sans-Serif" font-size="14.00">False</text>
</g>
<!-- 2 -->
<g id="node3" class="node">
<title>2</title>
<polygon fill="#e58139" stroke="black" points="410.25,-495 308.75,-495 308.75,-442 410.25,-442 410.25,-495"/>
<text text-anchor="middle" x="359.5" y="-477.7" font-family="Helvetica,sans-Serif" font-size="14.00">gini = 0.0</text>
<text text-anchor="middle" x="359.5" y="-462.7" font-family="Helvetica,sans-Serif" font-size="14.00">samples = 31</text>
<text text-anchor="middle" x="359.5" y="-447.7" font-family="Helvetica,sans-Serif" font-size="14.00">value = [31, 0]</text>
</g>
<!-- 1&#45;&gt;2 -->
<g id="edge2" class="edge">
<title>1&#45;&gt;2</title>
<path fill="none" stroke="black" d="M265.51,-417.13C276.71,-423.32 288.69,-429.93 300.19,-436.29"/>
<polygon fill="black" stroke="black" points="298.27,-439.78 308.72,-441.55 301.66,-433.65 298.27,-439.78"/>
</g>
<!-- 3 -->
<g id="node4" class="node">
<title>3</title>
<polygon fill="#eb9f68" stroke="black" points="410.25,-423.5 308.75,-423.5 308.75,-355.5 410.25,-355.5 410.25,-423.5"/>
<text text-anchor="middle" x="359.5" y="-406.2" font-family="Helvetica,sans-Serif" font-size="14.00">x2 &lt;= &#45;0.137</text>
<text text-anchor="middle" x="359.5" y="-391.2" font-family="Helvetica,sans-Serif" font-size="14.00">gini = 0.308</text>
<text text-anchor="middle" x="359.5" y="-376.2" font-family="Helvetica,sans-Serif" font-size="14.00">samples = 21</text>
<text text-anchor="middle" x="359.5" y="-361.2" font-family="Helvetica,sans-Serif" font-size="14.00">value = [17, 4]</text>
</g>
<!-- 1&#45;&gt;3 -->
<g id="edge3" class="edge">
<title>1&#45;&gt;3</title>
<path fill="none" stroke="black" d="M265.51,-389.5C275.8,-389.5 286.73,-389.5 297.35,-389.5"/>
<polygon fill="black" stroke="black" points="297.27,-393 307.27,-389.5 297.27,-386 297.27,-393"/>
</g>
<!-- 4 -->
<g id="node5" class="node">
<title>4</title>
<polygon fill="#f8e0ce" stroke="black" points="551.5,-495 457.5,-495 457.5,-442 551.5,-442 551.5,-495"/>
<text text-anchor="middle" x="504.5" y="-477.7" font-family="Helvetica,sans-Serif" font-size="14.00">gini = 0.49</text>
<text text-anchor="middle" x="504.5" y="-462.7" font-family="Helvetica,sans-Serif" font-size="14.00">samples = 7</text>
<text text-anchor="middle" x="504.5" y="-447.7" font-family="Helvetica,sans-Serif" font-size="14.00">value = [4, 3]</text>
</g>
<!-- 3&#45;&gt;4 -->
<g id="edge4" class="edge">
<title>3&#45;&gt;4</title>
<path fill="none" stroke="black" d="M410.51,-417.13C422.46,-423.73 435.29,-430.82 447.49,-437.56"/>
<polygon fill="black" stroke="black" points="445.66,-441.1 456.11,-442.87 449.05,-434.97 445.66,-441.1"/>
</g>
<!-- 5 -->
<g id="node6" class="node">
<title>5</title>
<polygon fill="#e78b48" stroke="black" points="555.25,-423.5 453.75,-423.5 453.75,-355.5 555.25,-355.5 555.25,-423.5"/>
<text text-anchor="middle" x="504.5" y="-406.2" font-family="Helvetica,sans-Serif" font-size="14.00">x1 &lt;= 0.993</text>
<text text-anchor="middle" x="504.5" y="-391.2" font-family="Helvetica,sans-Serif" font-size="14.00">gini = 0.133</text>
<text text-anchor="middle" x="504.5" y="-376.2" font-family="Helvetica,sans-Serif" font-size="14.00">samples = 14</text>
<text text-anchor="middle" x="504.5" y="-361.2" font-family="Helvetica,sans-Serif" font-size="14.00">value = [13, 1]</text>
</g>
<!-- 3&#45;&gt;5 -->
<g id="edge5" class="edge">
<title>3&#45;&gt;5</title>
<path fill="none" stroke="black" d="M410.51,-389.5C420.8,-389.5 431.73,-389.5 442.35,-389.5"/>
<polygon fill="black" stroke="black" points="442.27,-393 452.27,-389.5 442.27,-386 442.27,-393"/>
</g>
<!-- 6 -->
<g id="node7" class="node">
<title>6</title>
<polygon fill="#e58139" stroke="black" points="696.5,-487 602.5,-487 602.5,-434 696.5,-434 696.5,-487"/>
<text text-anchor="middle" x="649.5" y="-469.7" font-family="Helvetica,sans-Serif" font-size="14.00">gini = 0.0</text>
<text text-anchor="middle" x="649.5" y="-454.7" font-family="Helvetica,sans-Serif" font-size="14.00">samples = 7</text>
<text text-anchor="middle" x="649.5" y="-439.7" font-family="Helvetica,sans-Serif" font-size="14.00">value = [7, 0]</text>
</g>
<!-- 5&#45;&gt;6 -->
<g id="edge6" class="edge">
<title>5&#45;&gt;6</title>
<path fill="none" stroke="black" d="M555.51,-414.33C567.46,-420.26 580.29,-426.63 592.49,-432.69"/>
<polygon fill="black" stroke="black" points="590.6,-436.15 601.11,-437.47 593.71,-429.88 590.6,-436.15"/>
</g>
<!-- 7 -->
<g id="node8" class="node">
<title>7</title>
<polygon fill="#e9965a" stroke="black" points="696.5,-416 602.5,-416 602.5,-363 696.5,-363 696.5,-416"/>
<text text-anchor="middle" x="649.5" y="-398.7" font-family="Helvetica,sans-Serif" font-size="14.00">gini = 0.245</text>
<text text-anchor="middle" x="649.5" y="-383.7" font-family="Helvetica,sans-Serif" font-size="14.00">samples = 7</text>
<text text-anchor="middle" x="649.5" y="-368.7" font-family="Helvetica,sans-Serif" font-size="14.00">value = [6, 1]</text>
</g>
<!-- 5&#45;&gt;7 -->
<g id="edge7" class="edge">
<title>5&#45;&gt;7</title>
<path fill="none" stroke="black" d="M555.51,-389.5C567.11,-389.5 579.53,-389.5 591.4,-389.5"/>
<polygon fill="black" stroke="black" points="591.11,-393 601.11,-389.5 591.11,-386 591.11,-393"/>
</g>
<!-- 9 -->
<g id="node10" class="node">
<title>9</title>
<polygon fill="#8ac5f0" stroke="black" points="414,-256.5 305,-256.5 305,-188.5 414,-188.5 414,-256.5"/>
<text text-anchor="middle" x="359.5" y="-239.2" font-family="Helvetica,sans-Serif" font-size="14.00">x2 &lt;= 0.976</text>
<text text-anchor="middle" x="359.5" y="-224.2" font-family="Helvetica,sans-Serif" font-size="14.00">gini = 0.411</text>
<text text-anchor="middle" x="359.5" y="-209.2" font-family="Helvetica,sans-Serif" font-size="14.00">samples = 128</text>
<text text-anchor="middle" x="359.5" y="-194.2" font-family="Helvetica,sans-Serif" font-size="14.00">value = [37, 91]</text>
</g>
<!-- 8&#45;&gt;9 -->
<g id="edge9" class="edge">
<title>8&#45;&gt;9</title>
<path fill="none" stroke="black" d="M269.15,-222.5C277.2,-222.5 285.57,-222.5 293.81,-222.5"/>
<polygon fill="black" stroke="black" points="293.54,-226 303.54,-222.5 293.54,-219 293.54,-226"/>
</g>
<!-- 16 -->
<g id="node17" class="node">
<title>16</title>
<polygon fill="#eeab7b" stroke="black" points="410.25,-131.5 308.75,-131.5 308.75,-63.5 410.25,-63.5 410.25,-131.5"/>
<text text-anchor="middle" x="359.5" y="-114.2" font-family="Helvetica,sans-Serif" font-size="14.00">x1 &lt;= 3.078</text>
<text text-anchor="middle" x="359.5" y="-99.2" font-family="Helvetica,sans-Serif" font-size="14.00">gini = 0.375</text>
<text text-anchor="middle" x="359.5" y="-84.2" font-family="Helvetica,sans-Serif" font-size="14.00">samples = 20</text>
<text text-anchor="middle" x="359.5" y="-69.2" font-family="Helvetica,sans-Serif" font-size="14.00">value = [15, 5]</text>
</g>
<!-- 8&#45;&gt;16 -->
<g id="edge16" class="edge">
<title>8&#45;&gt;16</title>
<path fill="none" stroke="black" d="M254.95,-188.01C272.3,-172.85 292.83,-154.91 311.01,-139.02"/>
<polygon fill="black" stroke="black" points="312.95,-141.09 318.17,-131.88 308.34,-135.82 312.95,-141.09"/>
</g>
<!-- 10 -->
<g id="node11" class="node">
<title>10</title>
<polygon fill="#e2f0fb" stroke="black" points="559,-296.5 450,-296.5 450,-228.5 559,-228.5 559,-296.5"/>
<text text-anchor="middle" x="504.5" y="-279.2" font-family="Helvetica,sans-Serif" font-size="14.00">x1 &lt;= 1.017</text>
<text text-anchor="middle" x="504.5" y="-264.2" font-family="Helvetica,sans-Serif" font-size="14.00">gini = 0.497</text>
<text text-anchor="middle" x="504.5" y="-249.2" font-family="Helvetica,sans-Serif" font-size="14.00">samples = 50</text>
<text text-anchor="middle" x="504.5" y="-234.2" font-family="Helvetica,sans-Serif" font-size="14.00">value = [23, 27]</text>
</g>
<!-- 9&#45;&gt;10 -->
<g id="edge10" class="edge">
<title>9&#45;&gt;10</title>
<path fill="none" stroke="black" d="M414.15,-237.51C422.29,-239.78 430.76,-242.15 439.09,-244.48"/>
<polygon fill="black" stroke="black" points="437.97,-248.08 448.54,-247.41 439.86,-241.34 437.97,-248.08"/>
</g>
<!-- 13 -->
<g id="node14" class="node">
<title>13</title>
<polygon fill="#64b2eb" stroke="black" points="559,-210.5 450,-210.5 450,-142.5 559,-142.5 559,-210.5"/>
<text text-anchor="middle" x="504.5" y="-193.2" font-family="Helvetica,sans-Serif" font-size="14.00">x1 &lt;= &#45;0.967</text>
<text text-anchor="middle" x="504.5" y="-178.2" font-family="Helvetica,sans-Serif" font-size="14.00">gini = 0.295</text>
<text text-anchor="middle" x="504.5" y="-163.2" font-family="Helvetica,sans-Serif" font-size="14.00">samples = 78</text>
<text text-anchor="middle" x="504.5" y="-148.2" font-family="Helvetica,sans-Serif" font-size="14.00">value = [14, 64]</text>
</g>
<!-- 9&#45;&gt;13 -->
<g id="edge13" class="edge">
<title>9&#45;&gt;13</title>
<path fill="none" stroke="black" d="M414.15,-205.24C422.29,-202.62 430.76,-199.9 439.09,-197.22"/>
<polygon fill="black" stroke="black" points="440.1,-200.25 448.54,-193.86 437.95,-193.59 440.1,-200.25"/>
</g>
<!-- 11 -->
<g id="node12" class="node">
<title>11</title>
<polygon fill="#eda978" stroke="black" points="700.25,-345 598.75,-345 598.75,-292 700.25,-292 700.25,-345"/>
<text text-anchor="middle" x="649.5" y="-327.7" font-family="Helvetica,sans-Serif" font-size="14.00">gini = 0.366</text>
<text text-anchor="middle" x="649.5" y="-312.7" font-family="Helvetica,sans-Serif" font-size="14.00">samples = 29</text>
<text text-anchor="middle" x="649.5" y="-297.7" font-family="Helvetica,sans-Serif" font-size="14.00">value = [22, 7]</text>
</g>
<!-- 10&#45;&gt;11 -->
<g id="edge11" class="edge">
<title>10&#45;&gt;11</title>
<path fill="none" stroke="black" d="M559.15,-283.51C568.68,-287.24 578.66,-291.15 588.36,-294.95"/>
<polygon fill="black" stroke="black" points="586.74,-298.46 597.33,-298.85 589.29,-291.95 586.74,-298.46"/>
</g>
<!-- 12 -->
<g id="node13" class="node">
<title>12</title>
<polygon fill="#43a2e6" stroke="black" points="700.25,-274 598.75,-274 598.75,-221 700.25,-221 700.25,-274"/>
<text text-anchor="middle" x="649.5" y="-256.7" font-family="Helvetica,sans-Serif" font-size="14.00">gini = 0.091</text>
<text text-anchor="middle" x="649.5" y="-241.7" font-family="Helvetica,sans-Serif" font-size="14.00">samples = 21</text>
<text text-anchor="middle" x="649.5" y="-226.7" font-family="Helvetica,sans-Serif" font-size="14.00">value = [1, 20]</text>
</g>
<!-- 10&#45;&gt;12 -->
<g id="edge12" class="edge">
<title>10&#45;&gt;12</title>
<path fill="none" stroke="black" d="M559.15,-256.87C568.38,-255.9 578.03,-254.89 587.44,-253.9"/>
<polygon fill="black" stroke="black" points="587.75,-257.29 597.33,-252.76 587.02,-250.33 587.75,-257.29"/>
</g>
<!-- 14 -->
<g id="node15" class="node">
<title>14</title>
<polygon fill="#399de5" stroke="black" points="700.25,-203 598.75,-203 598.75,-150 700.25,-150 700.25,-203"/>
<text text-anchor="middle" x="649.5" y="-185.7" font-family="Helvetica,sans-Serif" font-size="14.00">gini = 0.0</text>
<text text-anchor="middle" x="649.5" y="-170.7" font-family="Helvetica,sans-Serif" font-size="14.00">samples = 15</text>
<text text-anchor="middle" x="649.5" y="-155.7" font-family="Helvetica,sans-Serif" font-size="14.00">value = [0, 15]</text>
</g>
<!-- 13&#45;&gt;14 -->
<g id="edge14" class="edge">
<title>13&#45;&gt;14</title>
<path fill="none" stroke="black" d="M559.15,-176.5C568.38,-176.5 578.03,-176.5 587.44,-176.5"/>
<polygon fill="black" stroke="black" points="587.33,-180 597.33,-176.5 587.33,-173 587.33,-180"/>
</g>
<!-- 15 -->
<g id="node16" class="node">
<title>15</title>
<polygon fill="#72b9ec" stroke="black" points="704,-132 595,-132 595,-79 704,-79 704,-132"/>
<text text-anchor="middle" x="649.5" y="-114.7" font-family="Helvetica,sans-Serif" font-size="14.00">gini = 0.346</text>
<text text-anchor="middle" x="649.5" y="-99.7" font-family="Helvetica,sans-Serif" font-size="14.00">samples = 63</text>
<text text-anchor="middle" x="649.5" y="-84.7" font-family="Helvetica,sans-Serif" font-size="14.00">value = [14, 49]</text>
</g>
<!-- 13&#45;&gt;15 -->
<g id="edge15" class="edge">
<title>13&#45;&gt;15</title>
<path fill="none" stroke="black" d="M559.15,-149.86C567.56,-145.69 576.32,-141.34 584.92,-137.07"/>
<polygon fill="black" stroke="black" points="586.14,-139.87 593.54,-132.29 583.03,-133.6 586.14,-139.87"/>
</g>
<!-- 17 -->
<g id="node18" class="node">
<title>17</title>
<polygon fill="#e58139" stroke="black" points="555.25,-124 453.75,-124 453.75,-71 555.25,-71 555.25,-124"/>
<text text-anchor="middle" x="504.5" y="-106.7" font-family="Helvetica,sans-Serif" font-size="14.00">gini = 0.0</text>
<text text-anchor="middle" x="504.5" y="-91.7" font-family="Helvetica,sans-Serif" font-size="14.00">samples = 13</text>
<text text-anchor="middle" x="504.5" y="-76.7" font-family="Helvetica,sans-Serif" font-size="14.00">value = [13, 0]</text>
</g>
<!-- 16&#45;&gt;17 -->
<g id="edge17" class="edge">
<title>16&#45;&gt;17</title>
<path fill="none" stroke="black" d="M410.51,-97.5C420.8,-97.5 431.73,-97.5 442.35,-97.5"/>
<polygon fill="black" stroke="black" points="442.27,-101 452.27,-97.5 442.27,-94 442.27,-101"/>
</g>
<!-- 18 -->
<g id="node19" class="node">
<title>18</title>
<polygon fill="#88c4ef" stroke="black" points="551.5,-53 457.5,-53 457.5,0 551.5,0 551.5,-53"/>
<text text-anchor="middle" x="504.5" y="-35.7" font-family="Helvetica,sans-Serif" font-size="14.00">gini = 0.408</text>
<text text-anchor="middle" x="504.5" y="-20.7" font-family="Helvetica,sans-Serif" font-size="14.00">samples = 7</text>
<text text-anchor="middle" x="504.5" y="-5.7" font-family="Helvetica,sans-Serif" font-size="14.00">value = [2, 5]</text>
</g>
<!-- 16&#45;&gt;18 -->
<g id="edge18" class="edge">
<title>16&#45;&gt;18</title>
<path fill="none" stroke="black" d="M410.51,-72.67C422.46,-66.74 435.29,-60.37 447.49,-54.31"/>
<polygon fill="black" stroke="black" points="448.71,-57.12 456.11,-49.53 445.6,-50.85 448.71,-57.12"/>
</g>
</g>
</svg>
